PathFileType	4	(X/Y/Z)	22_2_72_p1_0-381.trc
DataRate	CameraRate	NumFrames	NumMarkers	Units	OrigDataRate	OrigDataStartFrame	OrigNumFrames
59.0	59.0	5	27	m	59.0	238	382
Frame#	Time	RHip			RKnee			RAnkle			RBigToe			RSmallToe			RHeel			LHip			LKnee			LAnkle			LBigToe			LSmallToe			LHeel			Neck			Head			Nose			RShoulder			RElbow			RWrist			RThumb			RIndex			RPinky			LShoulder			LElbow			LWrist			LThumb			LIndex			LPinky			
		X1	Y1	Z1	X2	Y2	Z2	X3	Y3	Z3	X4	Y4	Z4	X5	Y5	Z5	X6	Y6	Z6	X7	Y7	Z7	X8	Y8	Z8	X9	Y9	Z9	X10	Y10	Z10	X11	Y11	Z11	X12	Y12	Z12	X13	Y13	Z13	X14	Y14	Z14	X15	Y15	Z15	X16	Y16	Z16	X17	Y17	Z17	X18	Y18	Z18	X19	Y19	Z19	X20	Y20	Z20	X21	Y21	Z21	X22	Y22	Z22	X23	Y23	Z23	X24	Y24	Z24	X25	Y25	Z25	X26	Y26	Z26	X27	Y27	Z27	
238	4.033898305084746	0.2648921202734698	0.626712036724339	1.0536236995946038	0.27592625834015816	0.7776336915993346	1.4217332327719194	0.2942970825063122	0.9636556785614745	1.8356419562417734	0.2608324493290756	0.736060403422812	1.8836418167050526	0.31911052977249443	0.7823459596407044	1.8858413749196985	0.29533063047339303	1.0263136029236255	1.8797186473929257	0.0459438032362913	0.673837995396402	1.0571895772881386	0.07897818679763342	0.7940197727717724	1.4268988747177989	0.09392245021502732	0.907544123829837	1.822095201825125	0.1059956380971657	0.7458773489996624	1.886620846409908	0.05236371636464974	0.773870005894822	1.8836237619079546	0.12017352407852806	0.9630837340161698	1.8739128251770905	0.1222302339517809	0.4819776916974328	0.4789762697522734	0.11546148453113206	0.3771145071602398	0.2380273737145514	0.07708106761626769	0.33291403745008974	0.3894469558035457	0.26249776037751266	0.46352233325205894	0.5656606476481312	0.35592251368723266	0.5455636223746834	0.8164733844184022	0.3544719555913363	0.5259666362830966	1.0760751322576911	0.28845895253903786	0.5352260449007697	1.204043926043735	0.312878730449851	0.5573470235389235	1.2281461949509838	0.34306394178678024	0.5787783761523947	1.2193999517340517	-0.04141823853346179	0.4864616690792895	0.5630656858977301	-0.06626596782167238	0.5708573652273703	0.8216063029445735	-0.036014531352308074	0.5589015584962879	1.0721052182066149	0.028772973488970004	0.5125984013604166	1.159141166051491	0.018874083559608172	0.5040928192776669	1.1802584130360656	-0.039972064156670914	0.5731180914723248	1.1918401671502445
239	4.0508474576271185	0.2647682395146862	0.6266231326681398	1.053424757078451	0.27588608542463217	0.7775467227574847	1.421684257194979	0.2943052197252622	0.9639619257767197	1.8355733523885451	0.2608668107020641	0.7365535278818303	1.8837631983021608	0.3191318685504188	0.7826574919316551	1.8859180623655891	0.2954306088874215	1.0267257414492466	1.8797795017199634	0.045931752827522064	0.673763580190027	1.0570825219706386	0.07763081358997978	0.7911819498320202	1.4217443374788643	0.09382951785590238	0.9075470371367095	1.8221184785088473	0.10599734609942355	0.7460069182210006	1.88658736355405	0.05246419026931671	0.7741555222616273	1.883763234823329	0.11772693168643027	0.982891162923456	1.880352542037424	0.12234379145063676	0.4820028397703657	0.4789262680831734	0.1155140961966665	0.3771769136808271	0.2380513726403571	0.07756375072903568	0.33387595792303537	0.3897901079942837	0.26259460724116934	0.46377245726393024	0.5657792961754585	0.3572672455086872	0.5312362954269875	0.8160768350704151	0.3532378979549341	0.5407858464293867	1.0779294711235048	0.28273037175949167	0.5231215824198425	1.2023003505030516	0.312748496610901	0.5569758006780501	1.2282625857202627	0.33925394533813513	0.5794397571506708	1.2196163982913624	-0.04127463284730628	0.48577707225965916	0.5599564277577294	-0.06625859167478224	0.5707585315918522	0.821602606714193	-0.0364360534986636	0.5598153575556661	1.075577891614495	0.028817280837247362	0.5125469775732779	1.159176964572173	0.01831052276610532	0.5050343206862155	1.1836219417278457	-0.03603136187903673	0.586419140841822	1.1937092150237216
240	4.067796610169491	0.26422143510038393	0.6281383818932774	1.0575912377841585	0.2753619750351728	0.7786177475586982	1.4260793753797445	0.294255262989872	0.9639456560593506	1.8356257327134209	0.2609808929193247	0.7364948876549969	1.8838350901587269	0.3211949479383962	0.7862645557035401	1.8909793946453126	0.2892125446840655	1.011590109380526	1.8750958779437947	0.041869103530744294	0.6738063626146897	1.0573773678081548	0.07764743525749339	0.791094682533654	1.4218634360536129	0.09211440693090384	0.9045128493938969	1.8166159907139208	0.1060648834427126	0.7462904338987468	1.8868808273896367	0.05211279432842765	0.7735308697225113	1.8834569141695847	0.11714114087855003	0.9823532508859748	1.880281828735885	0.1244735921711699	0.4686373002607999	0.47991751201406346	0.11534872293668745	0.37697058100934777	0.23790262417363828	0.07706685555033904	0.33245843789334834	0.38642753950349623	0.26249773917304486	0.46362040597543347	0.5657772867929011	0.35596643199174366	0.5453464689612243	0.8166063270615659	0.3486144294739074	0.5412385202825655	1.0781479081583663	0.28238266563942127	0.5222998275253472	1.2022265468869409	0.30734633405936146	0.5444571375179316	1.2264776876747485	0.32628617114062686	0.5691529735968054	1.2189132307309842	-0.041544085581079554	0.4868114750145561	0.5630716040707672	-0.06621626794523885	0.5706291828281829	0.8216072567043762	-0.03643717215779776	0.5593038478788142	1.0684966280549957	0.028706221864815435	0.5127573682812003	1.1591328593216244	0.018807885719138797	0.5042780482777077	1.1802289367281142	-0.04019565868741865	0.5732709375706062	1.1919639079173128
241	4.084745762711864	0.2599844373749025	0.6281895837865819	1.057766412693747	0.2753277638125877	0.7785456120438307	1.425974841537747	0.29426204724782234	0.9640299625809816	1.8355686353740766	0.26110910355217265	0.7366373522338383	1.8837119179565198	0.31982829926501405	0.7840032934885487	1.8862160549616322	0.2953203255872774	1.027246746277756	1.8799216831980072	0.036912211509083026	0.6599170771822218	1.0562397144229885	0.07755285176202201	0.7909326826486701	1.4218044719023804	0.09212519153335402	0.9045707914736079	1.8166533290753053	0.10471195608334685	0.7435353234073347	1.881653602255462	0.05209118497140568	0.7738964426885434	1.8836632621717007	0.11728363427469939	0.9825273023308507	1.8802929750792197	0.1222122016129277	0.481730408039809	0.47887128892550995	0.11535270891515126	0.37687026024017306	0.2378122858459889	0.07704969217486643	0.33243052269532997	0.3863597357379754	0.26248305161735397	0.4636483458387039	0.5656925690360419	0.35561414863135804	0.5454531513224343	0.8126585928525368	0.34847144955583553	0.5411059966452005	1.0781613596278659	0.2820923487496228	0.5216455163474478	1.2021865789871506	0.30702144894298317	0.5452542115872823	1.229811029300965	0.3261906704048243	0.5689002920230195	1.2189280184246034	-0.041506364839965997	0.48665342038113946	0.563079531823259	-0.06628844765148836	0.5707471293969782	0.821581707426376	-0.03648994406597955	0.5592849569057272	1.0684666673322551	0.028682798429787514	0.5127220005835033	1.159116257249789	0.018729942271274985	0.5042255029888482	1.180226437073933	-0.0402416641080069	0.573268804182506	1.1920431008836692
242	4.101694915254237	0.26419218658358284	0.6280565168895925	1.0576328093170542	0.2753672942956998	0.7785485737453443	1.4260169406713017	0.2943058229707368	0.9642465406290736	1.8355294401115558	0.26107569584303314	0.7365211171086125	1.8837799212785473	0.3258880775242122	0.7979326433470735	1.8910170233282153	0.2893139845888643	1.0116203861595872	1.8749672677305431	0.03691767794220203	0.6595913415092327	1.0561917458499608	0.07755788117748288	0.791046476969507	1.42179311954224	0.09213033613380414	0.9045756939200618	1.8166403680576997	0.10603809120608539	0.7461944901184538	1.8870789441006481	0.05187386162944524	0.7741247635410693	1.884029689108288	0.11738405411286977	0.9827331547313208	1.8803071456186107	0.1241757658013695	0.4681679075426179	0.4763586289234815	0.11551226170082067	0.3770997690033338	0.2378699809989156	0.07705235564838665	0.332454609386208	0.38629791779837086	0.2624964703517062	0.46364996614868426	0.5657343649973444	0.35563103185470707	0.5453059516607487	0.8126408180058924	0.34302814844106594	0.5291477205389814	1.0770732547080477	0.27645347348250643	0.5097070538239931	1.2005633158361448	0.3069233808914121	0.5451310696938825	1.2297724362239666	0.3262103436017926	0.5685991485561454	1.2189386879224628	-0.04144502964374407	0.48697206684124306	0.5630761168558319	-0.06629721695288729	0.5707665208642131	0.8215644517764167	-0.03656769298093912	0.5591958197109524	1.0682821445387518	0.02862595961555179	0.5125999034954765	1.1590384580057096	0.018570244600406415	0.5038565963965131	1.1800141045999053	-0.044025635743244175	0.5587361668529992	1.186772574937392
